<svg width="132" height="132" viewBox="0 0 132 132" fill="none" xmlns="http://www.w3.org/2000/svg">
<g id="Component 2">
<path id="Vector" d="M19.125 107.375C18.6063 107.375 18.1641 107.192 17.7986 106.826C17.4331 106.461 17.2503 106.019 17.25 105.5C17.2498 104.981 17.4326 104.539 17.7986 104.174C18.1646 103.808 18.6068 103.625 19.125 103.625H20.25C20.3563 103.625 20.4454 103.661 20.5174 103.733C20.5894 103.805 20.6253 103.894 20.625 104C20.6248 104.106 20.5888 104.195 20.517 104.267C20.4453 104.34 20.3563 104.375 20.25 104.375H19.125C18.8125 104.375 18.5469 104.484 18.3281 104.703C18.1094 104.922 18 105.188 18 105.5C18 105.812 18.1094 106.078 18.3281 106.297C18.5469 106.516 18.8125 106.625 19.125 106.625H20.25C20.3563 106.625 20.4454 106.661 20.5174 106.733C20.5894 106.805 20.6253 106.894 20.625 107C20.6248 107.106 20.5888 107.195 20.517 107.267C20.4453 107.34 20.3563 107.375 20.25 107.375H19.125ZM19.875 105.875C19.7688 105.875 19.6798 105.839 19.608 105.767C19.5363 105.695 19.5003 105.606 19.5 105.5C19.4998 105.394 19.5358 105.305 19.608 105.233C19.6803 105.161 19.7693 105.125 19.875 105.125H22.125C22.2313 105.125 22.3204 105.161 22.3924 105.233C22.4644 105.305 22.5003 105.394 22.5 105.5C22.4998 105.606 22.4638 105.695 22.392 105.767C22.3203 105.84 22.2313 105.875 22.125 105.875H19.875ZM21.75 107.375C21.6438 107.375 21.5548 107.339 21.483 107.267C21.4113 107.195 21.3753 107.106 21.375 107C21.3748 106.894 21.4108 106.805 21.483 106.733C21.5553 106.661 21.6443 106.625 21.75 106.625H22.875C23.1875 106.625 23.4531 106.516 23.6719 106.297C23.8906 106.078 24 105.812 24 105.5C24 105.188 23.8906 104.922 23.6719 104.703C23.4531 104.484 23.1875 104.375 22.875 104.375H21.75C21.6438 104.375 21.5548 104.339 21.483 104.267C21.4113 104.195 21.3753 104.106 21.375 104C21.3748 103.894 21.4108 103.805 21.483 103.733C21.5553 103.661 21.6443 103.625 21.75 103.625H22.875C23.3938 103.625 23.836 103.808 24.2018 104.174C24.5675 104.539 24.7502 104.981 24.75 105.5C24.7498 106.019 24.5669 106.461 24.2014 106.827C23.8359 107.193 23.3938 107.375 22.875 107.375H21.75Z" fill="black"/>
<path id="Ellipse 9" d="M9.375 65.625C9.375 34.559 34.559 9.375 65.625 9.375" stroke="#00BF6A" stroke-width="18.75"/>
<path id="Ellipse 10" d="M121.875 65.625C121.875 96.691 96.691 121.875 65.625 121.875" stroke="#FFCC00" stroke-width="18.75"/>
<path id="Ellipse 11" d="M65.625 121.875C34.559 121.875 9.375 96.691 9.375 65.625" stroke="#2563EB" stroke-width="18.75"/>
<path id="Ellipse 12" d="M121.875 65.625C121.875 34.559 96.691 9.375 65.625 9.375" stroke="#FF0000" stroke-width="18.75"/>
<path id="Vector_2" d="M65.6725 92.2043C61.9677 95.9091 57.5041 97.7606 52.2817 97.7588C47.0592 97.757 42.5956 95.9055 38.8908 92.2043C35.186 88.5031 33.3345 84.0395 33.3363 78.8135C33.3381 73.5875 35.1896 69.1239 38.8908 65.4226L46.9253 57.3881C47.6842 56.6293 48.5778 56.2499 49.6062 56.2499C50.6346 56.2499 51.5264 56.6293 52.2817 57.3881C53.0369 58.147 53.4163 59.0406 53.4199 60.069C53.4235 61.0974 53.0441 61.9892 52.2817 62.7445L44.2472 70.779C42.0154 73.0108 40.8995 75.6889 40.8995 78.8135C40.8995 81.938 42.0154 84.6162 44.2472 86.848C46.479 89.0798 49.1571 90.1957 52.2817 90.1957C55.4062 90.1957 58.0844 89.0798 60.3162 86.848L68.3507 78.8135C69.1095 78.0547 70.0031 77.6753 71.0315 77.6753C72.0599 77.6753 72.9518 78.0547 73.707 78.8135C74.4622 79.5723 74.8417 80.4659 74.8452 81.4943C74.8488 82.5227 74.4694 83.4146 73.707 84.1698L65.6725 92.2043ZM60.3162 76.1353C59.5574 76.8941 58.6646 77.2726 57.638 77.2708C56.6114 77.2691 55.7187 76.8905 54.9598 76.1353C54.201 75.3801 53.8225 74.4873 53.8243 73.4571C53.8261 72.4269 54.2046 71.5342 54.9598 70.779L71.0288 54.71C71.7877 53.9512 72.6813 53.5718 73.7097 53.5718C74.7381 53.5718 75.6299 53.9512 76.3852 54.71C77.1404 55.4688 77.5198 56.3624 77.5234 57.3908C77.527 58.4192 77.1476 59.3111 76.3852 60.0663L60.3162 76.1353ZM84.4197 73.4571C83.6609 74.216 82.7681 74.5945 81.7415 74.5927C80.7149 74.5909 79.8222 74.2124 79.0633 73.4571C78.3045 72.7019 77.926 71.8092 77.9278 70.779C77.9296 69.7488 78.3081 68.856 79.0633 68.1008L87.0978 60.0663C89.3296 57.8345 90.4455 55.1563 90.4455 52.0318C90.4455 48.9073 89.3296 46.2291 87.0978 43.9973C84.866 41.7655 82.1879 40.6496 79.0633 40.6496C75.9388 40.6496 73.2606 41.7655 71.0288 43.9973L62.9943 52.0318C62.2355 52.7906 61.3428 53.1691 60.3162 53.1674C59.2895 53.1656 58.3968 52.7871 57.638 52.0318C56.8792 51.2766 56.5007 50.3838 56.5025 49.3536C56.5042 48.3234 56.8828 47.4307 57.638 46.6755L65.6725 38.641C69.3773 34.9362 73.8418 33.0838 79.066 33.0838C84.2902 33.0838 88.7529 34.9362 92.4542 38.641C96.1554 42.3458 98.0078 46.8103 98.0114 52.0345C98.0149 57.2587 96.1625 61.7214 92.4542 65.4226L84.4197 73.4571Z" fill="url(#paint0_linear_137_237)"/>
</g>
<defs>
<linearGradient id="paint0_linear_137_237" x1="76.3125" y1="54.6877" x2="55.125" y2="76.2502" gradientUnits="userSpaceOnUse">
<stop stop-color="#00BF63"/>
<stop offset="0.497315" stop-color="#FFCC00"/>
<stop offset="1" stop-color="#FF3131"/>
</linearGradient>
</defs>
</svg>
